# xmcd
#
# Track frame offsets: 
#        150
#        11485
#        26860
#        45657
#        62367
#        76628
#        92805
#        108255
#        126358
#        140664
#        156051
#        174964
#        189495
#        206934
#        223385
#        229118
#        247078
#
# Disc length: 3615 seconds
#
# Revision: 0
# Processed by: cddbd v1.5.2PL0 Copyright (c) Steve Scherf et al.
# Submitted via: ExactAudioCopy v1.3
#
DISCID=ec0e1d11
DTITLE=Christcentric - The Ephesians Project
DYEAR=1900
DGENRE=Christian Rap
TTITLE0=Greetings
TTITLE1=Spiritual Blessings in Christ ft. B. Morr
TTITLE2=Thanksgiving and Prayer
TTITLE3=By Grace Through Faith ft. Timothy Brindle and Believin Stephe
TTITLE3=n
TTITLE4=One in Christ ft. Benjamin the Esquire
TTITLE5=The Mystery of the Gospel Revealed
TTITLE6=Prayer for Spiritual Strength
TTITLE7=Unity in the Body of Christ
TTITLE8=The New Life ft. Benjamin the Esquire
TTITLE9=Walk in Love ft. Jovan Mackenzy, Ana Nolasco, and B-Doe
TTITLE10=Wives and Husbands ft. B. Morr and Jewel
TTITLE11=Children and Parents ft. Benjamin the Esquire
TTITLE12=Slaves and Masters ft. Benjamin the Esquire
TTITLE13=The Whole Armor of God ft. Zae Da Blacksmith
TTITLE14=Final Greetings ft. Average Joe
TTITLE15=Ephesians Overview ft. Zae Da Blacksmith
TTITLE16=Fight for the Children ft. Ana Nolasco
EXTD=
EXTT0=
EXTT1=
EXTT2=
EXTT3=
EXTT4=
EXTT5=
EXTT6=
EXTT7=
EXTT8=
EXTT9=
EXTT10=
EXTT11=
EXTT12=
EXTT13=
EXTT14=
EXTT15=
EXTT16=
PLAYORDER=
